<svg height="512" viewBox="0 0 32 32" width="512" xmlns="http://www.w3.org/2000/svg" id="fi_6051092"><g id="Layer_16" data-name="Layer 16"><path d="m27 6.69c-2.51-2.51-7-3.44-11 .31a8.13 8.13 0 0 0 -7.65-2.25 7.49 7.49 0 0 0 -5.3 5.25c-.73 2.73.2 5.65 2.55 8l8.79 8.78a2.27 2.27 0 0 0 3.22 0l8.79-8.78c4.11-4.06 3.19-8.72.6-11.31zm-1.31 10.65-8.79 8.79a1.29 1.29 0 0 1 -1.8 0l-8.79-8.79c-2.13-2.13-2.94-4.63-2.29-7a6.41 6.41 0 0 1 6.21-4.8 7.7 7.7 0 0 1 5.41 2.46.53.53 0 0 0 .36.15.51.51 0 0 0 .35-.15c3.63-3.63 7.7-2.86 10-.61s2.96 6.32-.66 9.95z"></path></g></svg>